#N canvas 1111 322 798 624 12;
#X msg 131 76 open sound.wav;
#X msg 64 52 1;
#X msg 35 74 0;
#X obj 91 174 dac~;
#X obj 106 121 readsf~;
#X msg 261 120 1;
#X msg 209 138 0;
#X obj 259 257 dac~;
#X obj 274 204 readsf~;
#X obj 343 124 openpanel;
#X msg 345 166 open \$1;
#X obj 338 76 bng 15 250 50 0 empty empty empty 17 7 0 10 -262144 -1
-1;
#X msg 112 37 open jaurim.wav;
#X msg 479 73 read -resize sound.wav soundData;
#X obj 508 118 soundfiler;
#X floatatom 473 153 5 0 0 0 - - -;
#X obj 450 192 expr 44100/$f1;
#X obj 420 282 phasor~;
#X obj 536 345 *~;
#X obj 539 383 tabread4~ soundData;
#X obj 538 426 dac~;
#X msg 427 124 0;
#X obj 495 219 hsl 128 15 0 127 0 0 empty empty empty -2 -8 0 10 -262144
-1 -1 0 1;
#N canvas 0 50 450 250 (subpatch) 0;
#X array soundData 1.16787e+007 float 2;
#X coords 0 1 1.16787e+007 -1 200 140 1;
#X restore 635 138 graph;
#X floatatom 492 242 5 0 0 0 - - -;
#X connect 0 0 4 0;
#X connect 1 0 4 0;
#X connect 2 0 4 0;
#X connect 4 0 3 0;
#X connect 4 0 3 1;
#X connect 5 0 8 0;
#X connect 6 0 8 0;
#X connect 8 0 7 0;
#X connect 8 0 7 1;
#X connect 9 0 10 0;
#X connect 10 0 8 0;
#X connect 11 0 9 0;
#X connect 12 0 4 0;
#X connect 13 0 14 0;
#X connect 14 0 15 0;
#X connect 15 0 16 0;
#X connect 15 0 18 1;
#X connect 16 0 17 0;
#X connect 17 0 18 0;
#X connect 18 0 19 0;
#X connect 19 0 20 0;
#X connect 19 0 20 1;
#X connect 21 0 17 0;
#X connect 22 0 24 0;
#X connect 24 0 17 0;
